# xmcd
# 
# Track frame offsets:
#     150
#     34124
#     74284
#     106520
#     138371
#     160760
#     190271
#     219119
# 
# Disc length: 3466
# 
# Revision: 2
# Processed by: cddbd v1.5.2PL0 Copyright (c) Steve Scherf et al.
# Submitted via: fre:ac v1.0.31
# 
DISCID=610d8808
DTITLE=Larry Carlton - Unplugged With Robben Ford
DYEAR=2013
DGENRE=Jazz
TTITLE0=NM Blues 08
TTITLE1=That Road
TTITLE2=Monty
TTITLE3=Cold Gold
TTITLE4=Hand In Hand With The Blues
TTITLE5=Amen AC
TTITLE6=I Put A Spell On You
TTITLE7=Rio Samba
EXTD=
EXTT0=
EXTT1=
EXTT2=
EXTT3=
EXTT4=
EXTT5=
EXTT6=
EXTT7=
PLAYORDER=
